<svg width="158" height="89" viewBox="0 0 158 89" fill="none" xmlns="http://www.w3.org/2000/svg">
<path d="M130.421 52.9492V86.2192H105.991V52.9492H103.211V88.9992H133.201V52.9492H130.421Z" fill="white"/>
<path d="M105.991 30.4V2.78H130.421V30.4H133.201V0H103.211V30.4H105.991Z" fill="white"/>
<mask id="path-3-outside-1_12_130" maskUnits="userSpaceOnUse" x="-1" y="35" width="159" height="14" fill="black">
<rect fill="white" x="-1" y="35" width="159" height="14"/>
<path d="M8.02586 40.1777L5.87254 48H3.86863L0.221169 35.6162H1.97019L4.19382 43.4824C4.32859 43.9746 4.45457 44.4756 4.57175 44.9854C4.6948 45.4893 4.81199 46.002 4.92332 46.5234C4.97019 46.3066 5.03172 46.0225 5.10789 45.6709C5.18992 45.3135 5.27488 44.9502 5.36277 44.5811C5.45066 44.2119 5.52976 43.9014 5.60007 43.6494L7.85007 35.6162H9.45847L11.6118 43.3242C11.7759 43.9512 11.9223 44.5342 12.0512 45.0732C12.1802 45.6064 12.2915 46.0898 12.3852 46.5234C12.4731 46.1777 12.5639 45.8057 12.6577 45.4072C12.7573 45.0029 12.8481 44.6367 12.9302 44.3086C13.018 43.9746 13.0796 43.7373 13.1147 43.5967L15.3208 35.6162H17.0698L13.4223 48H11.4184L9.2739 40.1338C9.20359 39.8877 9.1157 39.5449 9.01023 39.1055C8.91062 38.666 8.79343 38.127 8.65867 37.4883C8.60593 37.7988 8.53562 38.1357 8.44773 38.499C8.3657 38.8564 8.28367 39.1875 8.20164 39.4922C8.12547 39.7969 8.06687 40.0254 8.02586 40.1777ZM20.7514 44.3789L19.3275 48H17.5873L22.641 35.6162H24.5482L29.5228 48H27.809L26.3939 44.3789H20.7514ZM23.5727 36.8818C23.473 37.21 23.3529 37.5762 23.2123 37.9805C23.0775 38.3789 22.9516 38.7305 22.8344 39.0352L21.2611 43.0693H25.893L24.3021 38.9824C24.2201 38.7773 24.1117 38.4873 23.9769 38.1123C23.8422 37.7373 23.7074 37.3271 23.5727 36.8818ZM35.6302 36.9873V48H33.9603V36.9873H29.7064V35.6162H39.8841V36.9873H35.6302ZM48.4172 46.7959C50.1516 46.7959 51.4553 45.9375 52.3284 44.2207L53.6995 44.9062C53.1897 45.9727 52.4719 46.7842 51.5461 47.3408C50.6262 47.8975 49.5569 48.1758 48.3381 48.1758C47.0842 48.1758 46.0061 47.915 45.1037 47.3936C44.2014 46.8721 43.5071 46.1309 43.0207 45.1699C42.5403 44.2031 42.3 43.0635 42.3 41.751C42.3 40.4326 42.5403 39.3018 43.0207 38.3584C43.5012 37.415 44.1926 36.6914 45.095 36.1875C45.9973 35.6836 47.0754 35.4316 48.3293 35.4316C49.6477 35.4316 50.7493 35.6895 51.634 36.2051C52.5188 36.7207 53.1692 37.4854 53.5852 38.499L51.9944 39.0264C51.7073 38.3057 51.2444 37.7549 50.6057 37.374C49.9729 36.9932 49.22 36.8027 48.3469 36.8027C46.9758 36.8027 45.9094 37.2451 45.1477 38.1299C44.386 39.0088 44.0051 40.2158 44.0051 41.751C44.0051 42.7588 44.1838 43.6436 44.5412 44.4053C44.9045 45.1611 45.4143 45.75 46.0705 46.1719C46.7327 46.5879 47.5149 46.7959 48.4172 46.7959ZM58.6291 42.2607V48H56.9503V35.6162H58.6291V40.8545H65.3263V35.6162H67.005V48H65.3263V42.2607H58.6291ZM81.6455 36.9873V48H79.9756V36.9873H75.7217V35.6162H85.8994V36.9873H81.6455ZM90.5566 42.8584V48H88.8778V35.6162H94.705C96.0995 35.6162 97.1747 35.9297 97.9306 36.5566C98.6923 37.1777 99.0732 38.0449 99.0732 39.1582C99.0732 40.0781 98.8036 40.8516 98.2646 41.4785C97.7314 42.1055 96.9931 42.501 96.0497 42.665L99.5653 48H97.6318L94.415 42.8584H90.5566ZM97.3857 39.1758C97.3857 38.4551 97.1396 37.9072 96.6474 37.5322C96.161 37.1514 95.4579 36.9609 94.538 36.9609H90.5566V41.5312H94.6083C95.4931 41.5312 96.1757 41.3262 96.6562 40.916C97.1425 40.5 97.3857 39.9199 97.3857 39.1758ZM104.688 44.3789L103.264 48H101.524L106.578 35.6162H108.485L113.46 48H111.746L110.331 44.3789H104.688ZM107.51 36.8818C107.41 37.21 107.29 37.5762 107.149 37.9805C107.014 38.3789 106.889 38.7305 106.771 39.0352L105.198 43.0693H109.83L108.239 38.9824C108.157 38.7773 108.049 38.4873 107.914 38.1123C107.779 37.7373 107.644 37.3271 107.51 36.8818ZM117.915 35.6162V48H116.236V35.6162H117.915ZM130.078 46.6289V48H122.141V35.6162H123.82V46.6289H130.078ZM142.997 46.6289V48H133.241V35.6162H142.636V36.9873H134.92V40.96H142.109V42.3135H134.92V46.6289H142.997ZM148.005 42.8584V48H146.327V35.6162H152.154C153.548 35.6162 154.624 35.9297 155.379 36.5566C156.141 37.1777 156.522 38.0449 156.522 39.1582C156.522 40.0781 156.252 40.8516 155.713 41.4785C155.18 42.1055 154.442 42.501 153.499 42.665L157.014 48H155.081L151.864 42.8584H148.005ZM154.835 39.1758C154.835 38.4551 154.588 37.9072 154.096 37.5322C153.61 37.1514 152.907 36.9609 151.987 36.9609H148.005V41.5312H152.057C152.942 41.5312 153.625 41.3262 154.105 40.916C154.591 40.5 154.835 39.9199 154.835 39.1758Z"/>
</mask>
<path d="M8.02586 40.1777L5.87254 48H3.86863L0.221169 35.6162H1.97019L4.19382 43.4824C4.32859 43.9746 4.45457 44.4756 4.57175 44.9854C4.6948 45.4893 4.81199 46.002 4.92332 46.5234C4.97019 46.3066 5.03172 46.0225 5.10789 45.6709C5.18992 45.3135 5.27488 44.9502 5.36277 44.5811C5.45066 44.2119 5.52976 43.9014 5.60007 43.6494L7.85007 35.6162H9.45847L11.6118 43.3242C11.7759 43.9512 11.9223 44.5342 12.0512 45.0732C12.1802 45.6064 12.2915 46.0898 12.3852 46.5234C12.4731 46.1777 12.5639 45.8057 12.6577 45.4072C12.7573 45.0029 12.8481 44.6367 12.9302 44.3086C13.018 43.9746 13.0796 43.7373 13.1147 43.5967L15.3208 35.6162H17.0698L13.4223 48H11.4184L9.2739 40.1338C9.20359 39.8877 9.1157 39.5449 9.01023 39.1055C8.91062 38.666 8.79343 38.127 8.65867 37.4883C8.60593 37.7988 8.53562 38.1357 8.44773 38.499C8.3657 38.8564 8.28367 39.1875 8.20164 39.4922C8.12547 39.7969 8.06687 40.0254 8.02586 40.1777ZM20.7514 44.3789L19.3275 48H17.5873L22.641 35.6162H24.5482L29.5228 48H27.809L26.3939 44.3789H20.7514ZM23.5727 36.8818C23.473 37.21 23.3529 37.5762 23.2123 37.9805C23.0775 38.3789 22.9516 38.7305 22.8344 39.0352L21.2611 43.0693H25.893L24.3021 38.9824C24.2201 38.7773 24.1117 38.4873 23.9769 38.1123C23.8422 37.7373 23.7074 37.3271 23.5727 36.8818ZM35.6302 36.9873V48H33.9603V36.9873H29.7064V35.6162H39.8841V36.9873H35.6302ZM48.4172 46.7959C50.1516 46.7959 51.4553 45.9375 52.3284 44.2207L53.6995 44.9062C53.1897 45.9727 52.4719 46.7842 51.5461 47.3408C50.6262 47.8975 49.5569 48.1758 48.3381 48.1758C47.0842 48.1758 46.0061 47.915 45.1037 47.3936C44.2014 46.8721 43.5071 46.1309 43.0207 45.1699C42.5403 44.2031 42.3 43.0635 42.3 41.751C42.3 40.4326 42.5403 39.3018 43.0207 38.3584C43.5012 37.415 44.1926 36.6914 45.095 36.1875C45.9973 35.6836 47.0754 35.4316 48.3293 35.4316C49.6477 35.4316 50.7493 35.6895 51.634 36.2051C52.5188 36.7207 53.1692 37.4854 53.5852 38.499L51.9944 39.0264C51.7073 38.3057 51.2444 37.7549 50.6057 37.374C49.9729 36.9932 49.22 36.8027 48.3469 36.8027C46.9758 36.8027 45.9094 37.2451 45.1477 38.1299C44.386 39.0088 44.0051 40.2158 44.0051 41.751C44.0051 42.7588 44.1838 43.6436 44.5412 44.4053C44.9045 45.1611 45.4143 45.75 46.0705 46.1719C46.7327 46.5879 47.5149 46.7959 48.4172 46.7959ZM58.6291 42.2607V48H56.9503V35.6162H58.6291V40.8545H65.3263V35.6162H67.005V48H65.3263V42.2607H58.6291ZM81.6455 36.9873V48H79.9756V36.9873H75.7217V35.6162H85.8994V36.9873H81.6455ZM90.5566 42.8584V48H88.8778V35.6162H94.705C96.0995 35.6162 97.1747 35.9297 97.9306 36.5566C98.6923 37.1777 99.0732 38.0449 99.0732 39.1582C99.0732 40.0781 98.8036 40.8516 98.2646 41.4785C97.7314 42.1055 96.9931 42.501 96.0497 42.665L99.5653 48H97.6318L94.415 42.8584H90.5566ZM97.3857 39.1758C97.3857 38.4551 97.1396 37.9072 96.6474 37.5322C96.161 37.1514 95.4579 36.9609 94.538 36.9609H90.5566V41.5312H94.6083C95.4931 41.5312 96.1757 41.3262 96.6562 40.916C97.1425 40.5 97.3857 39.9199 97.3857 39.1758ZM104.688 44.3789L103.264 48H101.524L106.578 35.6162H108.485L113.46 48H111.746L110.331 44.3789H104.688ZM107.51 36.8818C107.41 37.21 107.29 37.5762 107.149 37.9805C107.014 38.3789 106.889 38.7305 106.771 39.0352L105.198 43.0693H109.83L108.239 38.9824C108.157 38.7773 108.049 38.4873 107.914 38.1123C107.779 37.7373 107.644 37.3271 107.51 36.8818ZM117.915 35.6162V48H116.236V35.6162H117.915ZM130.078 46.6289V48H122.141V35.6162H123.82V46.6289H130.078ZM142.997 46.6289V48H133.241V35.6162H142.636V36.9873H134.92V40.96H142.109V42.3135H134.92V46.6289H142.997ZM148.005 42.8584V48H146.327V35.6162H152.154C153.548 35.6162 154.624 35.9297 155.379 36.5566C156.141 37.1777 156.522 38.0449 156.522 39.1582C156.522 40.0781 156.252 40.8516 155.713 41.4785C155.18 42.1055 154.442 42.501 153.499 42.665L157.014 48H155.081L151.864 42.8584H148.005ZM154.835 39.1758C154.835 38.4551 154.588 37.9072 154.096 37.5322C153.61 37.1514 152.907 36.9609 151.987 36.9609H148.005V41.5312H152.057C152.942 41.5312 153.625 41.3262 154.105 40.916C154.591 40.5 154.835 39.9199 154.835 39.1758Z" fill="white"/>
<path d="M8.02586 40.1777L8.21869 40.2308L8.21898 40.2297L8.02586 40.1777ZM5.87254 48V48.2H6.02492L6.06536 48.0531L5.87254 48ZM3.86863 48L3.67678 48.0565L3.71904 48.2H3.86863V48ZM0.221169 35.6162V35.4162H-0.0462332L0.0293171 35.6727L0.221169 35.6162ZM1.97019 35.6162L2.16265 35.5618L2.12149 35.4162H1.97019V35.6162ZM4.19382 43.4824L4.38673 43.4296L4.38628 43.428L4.19382 43.4824ZM4.57175 44.9854L4.37682 45.0302L4.37746 45.0328L4.57175 44.9854ZM4.92332 46.5234L4.72772 46.5652L5.1188 46.5657L4.92332 46.5234ZM5.10789 45.6709L4.91294 45.6262L4.91242 45.6285L5.10789 45.6709ZM5.60007 43.6494L5.40749 43.5955L5.40744 43.5957L5.60007 43.6494ZM7.85007 35.6162V35.4162H7.6984L7.65749 35.5623L7.85007 35.6162ZM9.45847 35.6162L9.6511 35.5624L9.61026 35.4162H9.45847V35.6162ZM11.6118 43.3242L11.8053 43.2736L11.8044 43.2704L11.6118 43.3242ZM12.0512 45.0732L11.8567 45.1198L11.8568 45.1202L12.0512 45.0732ZM12.3852 46.5234L12.1897 46.5657L12.5791 46.5727L12.3852 46.5234ZM12.6577 45.4072L12.4635 45.3594L12.463 45.3614L12.6577 45.4072ZM12.9302 44.3086L12.7367 44.2577L12.7361 44.2601L12.9302 44.3086ZM13.1147 43.5967L12.9219 43.5434L12.9207 43.5482L13.1147 43.5967ZM15.3208 35.6162V35.4162H15.1686L15.128 35.5629L15.3208 35.6162ZM17.0698 35.6162L17.2617 35.6727L17.3372 35.4162H17.0698V35.6162ZM13.4223 48V48.2H13.5719L13.6142 48.0565L13.4223 48ZM11.4184 48L11.2255 48.0526L11.2657 48.2H11.4184V48ZM9.2739 40.1338L9.46688 40.0812L9.46621 40.0788L9.2739 40.1338ZM9.01023 39.1055L8.81516 39.1497L8.81575 39.1521L9.01023 39.1055ZM8.65867 37.4883L8.85436 37.447L8.46149 37.4548L8.65867 37.4883ZM8.44773 38.499L8.25333 38.452L8.2528 38.4543L8.44773 38.499ZM8.20164 39.4922L8.00848 39.4402L8.00761 39.4437L8.20164 39.4922ZM7.83303 40.1247L5.67971 47.9469L6.06536 48.0531L8.21868 40.2308L7.83303 40.1247ZM5.87254 47.8H3.86863V48.2H5.87254V47.8ZM4.06048 47.9435L0.41302 35.5597L0.0293171 35.6727L3.67678 48.0565L4.06048 47.9435ZM0.221169 35.8162H1.97019V35.4162H0.221169V35.8162ZM1.77773 35.6706L4.00137 43.5368L4.38628 43.428L2.16265 35.5618L1.77773 35.6706ZM4.00093 43.5352C4.13495 44.0247 4.26025 44.523 4.37684 45.0302L4.76667 44.9405C4.64888 44.4282 4.52223 43.9245 4.38672 43.4296L4.00093 43.5352ZM4.37746 45.0328C4.50004 45.5348 4.61679 46.0456 4.72772 46.5652L5.11891 46.4817C5.00719 45.9583 4.88957 45.4438 4.76605 44.9379L4.37746 45.0328ZM5.1188 46.5657C5.16567 46.3489 5.22718 46.0648 5.30335 45.7132L4.91242 45.6285C4.83625 45.9801 4.77472 46.2643 4.72783 46.4812L5.1188 46.5657ZM5.30282 45.7156C5.38473 45.3588 5.46956 44.996 5.55733 44.6274L5.16821 44.5347C5.0802 44.9044 4.99511 45.2682 4.91296 45.6262L5.30282 45.7156ZM5.55733 44.6274C5.64487 44.2597 5.72332 43.9518 5.79271 43.7032L5.40744 43.5957C5.33621 43.8509 5.25645 44.1641 5.16821 44.5347L5.55733 44.6274ZM5.79266 43.7034L8.04266 35.6702L7.65749 35.5623L5.40749 43.5955L5.79266 43.7034ZM7.85007 35.8162H9.45847V35.4162H7.85007V35.8162ZM9.26585 35.67L11.4192 43.378L11.8044 43.2704L9.6511 35.5624L9.26585 35.67ZM11.4183 43.3749C11.5821 44.0007 11.7282 44.5823 11.8567 45.1198L12.2458 45.0267C12.1165 44.4861 11.9696 43.9017 11.8053 43.2736L11.4183 43.3749ZM11.8568 45.1202C11.9855 45.6522 12.0964 46.134 12.1897 46.5657L12.5807 46.4812C12.4866 46.0457 12.3748 45.5607 12.2456 45.0262L11.8568 45.1202ZM12.5791 46.5727C12.6673 46.2257 12.7584 45.8525 12.8524 45.453L12.463 45.3614C12.3695 45.7589 12.279 46.1298 12.1914 46.4742L12.5791 46.5727ZM12.8519 45.4551C12.9515 45.0509 13.0422 44.685 13.1242 44.3571L12.7361 44.2601C12.654 44.5885 12.5632 44.9549 12.4635 45.3594L12.8519 45.4551ZM13.1236 44.3595C13.2115 44.0255 13.2733 43.7871 13.3088 43.6452L12.9207 43.5482C12.8859 43.6875 12.8246 43.9237 12.7367 44.2577L13.1236 44.3595ZM13.3075 43.65L15.5135 35.6695L15.128 35.5629L12.922 43.5434L13.3075 43.65ZM15.3208 35.8162H17.0698V35.4162H15.3208V35.8162ZM16.878 35.5597L13.2305 47.9435L13.6142 48.0565L17.2617 35.6727L16.878 35.5597ZM13.4223 47.8H11.4184V48.2H13.4223V47.8ZM11.6114 47.9474L9.46686 40.0812L9.08095 40.1864L11.2255 48.0526L11.6114 47.9474ZM9.46621 40.0788C9.39705 39.8368 9.30993 39.4972 9.20471 39.0588L8.81575 39.1521C8.92147 39.5926 9.01013 39.9386 9.0816 40.1887L9.46621 40.0788ZM9.20528 39.0613C9.10597 38.6231 8.989 38.0851 8.85436 37.447L8.46298 37.5296C8.59787 38.1688 8.71528 38.7089 8.81518 39.1497L9.20528 39.0613ZM8.46149 37.4548C8.40966 37.7601 8.34034 38.0924 8.25334 38.452L8.64212 38.5461C8.7309 38.1791 8.80221 37.8376 8.85585 37.5218L8.46149 37.4548ZM8.2528 38.4543C8.17124 38.8097 8.0898 39.1383 8.00851 39.4402L8.39476 39.5442C8.47753 39.2367 8.56016 38.9032 8.64266 38.5438L8.2528 38.4543ZM8.00761 39.4437C7.9315 39.7481 7.87326 39.9752 7.83273 40.1257L8.21898 40.2297C8.26048 40.0756 8.31943 39.8456 8.39567 39.5407L8.00761 39.4437ZM20.7514 44.3789V44.1789H20.6151L20.5652 44.3057L20.7514 44.3789ZM19.3275 48V48.2H19.4638L19.5137 48.0732L19.3275 48ZM17.5873 48L17.4021 47.9244L17.2897 48.2H17.5873V48ZM22.641 35.6162V35.4162H22.5066L22.4558 35.5406L22.641 35.6162ZM24.5482 35.6162L24.7338 35.5417L24.6834 35.4162H24.5482V35.6162ZM29.5228 48V48.2H29.8187L29.7084 47.9254L29.5228 48ZM27.809 48L27.6227 48.0728L27.6724 48.2H27.809V48ZM26.3939 44.3789L26.5802 44.3061L26.5305 44.1789H26.3939V44.3789ZM23.5727 36.8818L23.7641 36.8239L23.573 36.1923L23.3813 36.8237L23.5727 36.8818ZM23.2123 37.9805L23.0234 37.9148L23.0228 37.9164L23.2123 37.9805ZM22.8344 39.0352L23.0207 39.1078L23.021 39.107L22.8344 39.0352ZM21.2611 43.0693L21.0748 42.9967L20.9685 43.2693H21.2611V43.0693ZM25.893 43.0693V43.2693H26.1854L26.0793 42.9968L25.893 43.0693ZM24.3021 38.9824L24.4885 38.9099L24.4878 38.9081L24.3021 38.9824ZM20.5652 44.3057L19.1414 47.9268L19.5137 48.0732L20.9375 44.4521L20.5652 44.3057ZM19.3275 47.8H17.5873V48.2H19.3275V47.8ZM17.7725 48.0756L22.8262 35.6918L22.4558 35.5406L17.4021 47.9244L17.7725 48.0756ZM22.641 35.8162H24.5482V35.4162H22.641V35.8162ZM24.3627 35.6908L29.3373 48.0746L29.7084 47.9254L24.7338 35.5417L24.3627 35.6908ZM29.5228 47.8H27.809V48.2H29.5228V47.8ZM27.9953 47.9272L26.5802 44.3061L26.2077 44.4517L27.6227 48.0728L27.9953 47.9272ZM26.3939 44.1789H20.7514V44.5789H26.3939V44.1789ZM23.3813 36.8237C23.2826 37.1488 23.1634 37.5124 23.0234 37.9148L23.4012 38.0462C23.5425 37.6399 23.6635 37.2711 23.764 36.9399L23.3813 36.8237ZM23.0228 37.9164C22.8887 38.3129 22.7637 38.6618 22.6477 38.9634L23.021 39.107C23.1394 38.7991 23.2663 38.4449 23.4018 38.0445L23.0228 37.9164ZM22.648 38.9625L21.0748 42.9967L21.4475 43.142L23.0207 39.1078L22.648 38.9625ZM21.2611 43.2693H25.893V42.8693H21.2611V43.2693ZM26.0793 42.9968L24.4885 38.9099L24.1158 39.055L25.7066 43.1419L26.0793 42.9968ZM24.4878 38.9081C24.4071 38.7063 24.2997 38.4189 24.1652 38.0447L23.7887 38.1799C23.9238 38.5557 24.0331 38.8483 24.1164 39.0567L24.4878 38.9081ZM24.1652 38.0447C24.0317 37.6734 23.898 37.2665 23.7641 36.8239L23.3812 36.9398C23.5168 37.3878 23.6526 37.8013 23.7887 38.1799L24.1652 38.0447ZM35.6302 36.9873V36.7873H35.4302V36.9873H35.6302ZM35.6302 48V48.2H35.8302V48H35.6302ZM33.9603 48H33.7603V48.2H33.9603V48ZM33.9603 36.9873H34.1603V36.7873H33.9603V36.9873ZM29.7064 36.9873H29.5064V37.1873H29.7064V36.9873ZM29.7064 35.6162V35.4162H29.5064V35.6162H29.7064ZM39.8841 35.6162H40.0841V35.4162H39.8841V35.6162ZM39.8841 36.9873V37.1873H40.0841V36.9873H39.8841ZM35.4302 36.9873V48H35.8302V36.9873H35.4302ZM35.6302 47.8H33.9603V48.2H35.6302V47.8ZM34.1603 48V36.9873H33.7603V48H34.1603ZM33.9603 36.7873H29.7064V37.1873H33.9603V36.7873ZM29.9064 36.9873V35.6162H29.5064V36.9873H29.9064ZM29.7064 35.8162H39.8841V35.4162H29.7064V35.8162ZM39.6841 35.6162V36.9873H40.0841V35.6162H39.6841ZM39.8841 36.7873H35.6302V37.1873H39.8841V36.7873ZM52.3284 44.2207L52.4178 44.0418L52.2401 43.953L52.1501 44.13L52.3284 44.2207ZM53.6995 44.9062L53.8799 44.9925L53.9646 44.8152L53.7889 44.7274L53.6995 44.9062ZM51.5461 47.3408L51.4431 47.1694L51.4426 47.1697L51.5461 47.3408ZM43.0207 45.1699L42.8416 45.2589L42.8423 45.2602L43.0207 45.1699ZM53.5852 38.499L53.6481 38.6889L53.8516 38.6214L53.7702 38.4231L53.5852 38.499ZM51.9944 39.0264L51.8086 39.1004L51.8783 39.2755L52.0573 39.2162L51.9944 39.0264ZM50.6057 37.374L50.5026 37.5454L50.5033 37.5458L50.6057 37.374ZM45.1477 38.1299L45.2988 38.2609L45.2993 38.2604L45.1477 38.1299ZM44.5412 44.4053L44.3602 44.4902L44.361 44.4919L44.5412 44.4053ZM46.0705 46.1719L45.9624 46.3401L45.9641 46.3412L46.0705 46.1719ZM48.4172 46.9959C49.319 46.9959 50.1177 46.7722 50.8058 46.3191C51.4927 45.8669 52.058 45.1935 52.5066 44.3114L52.1501 44.13C51.7257 44.9647 51.2026 45.5789 50.5858 45.9851C49.9702 46.3904 49.2498 46.5959 48.4172 46.5959V46.9959ZM52.2389 44.3996L53.61 45.0851L53.7889 44.7274L52.4178 44.0418L52.2389 44.3996ZM53.519 44.82C53.0245 45.8545 52.3321 46.6349 51.4431 47.1694L51.6492 47.5122C52.6117 46.9335 53.3549 46.0908 53.8799 44.9925L53.519 44.82ZM51.4426 47.1697C50.5579 47.705 49.5254 47.9758 48.3381 47.9758V48.3758C49.5884 48.3758 50.6945 48.0899 51.6497 47.5119L51.4426 47.1697ZM48.3381 47.9758C47.1122 47.9758 46.0701 47.721 45.2038 47.2204L45.0037 47.5667C45.9421 48.109 47.0562 48.3758 48.3381 48.3758V47.9758ZM45.2038 47.2204C44.3363 46.719 43.6686 46.0071 43.1992 45.0796L42.8423 45.2602C43.3455 46.2546 44.0666 47.0251 45.0037 47.5667L45.2038 47.2204ZM43.1998 45.0809C42.7358 44.1471 42.5 43.0392 42.5 41.751H42.1C42.1 43.0878 42.3448 44.2591 42.8416 45.2589L43.1998 45.0809ZM42.5 41.751C42.5 40.4566 42.7359 39.3584 43.199 38.4492L42.8425 38.2676C42.3447 39.2452 42.1 40.4086 42.1 41.751H42.5ZM43.199 38.4492C43.6619 37.5402 44.3256 36.8462 45.1925 36.3621L44.9974 36.0129C44.0596 36.5366 43.3405 37.2899 42.8425 38.2676L43.199 38.4492ZM45.1925 36.3621C46.0593 35.8781 47.1023 35.6316 48.3293 35.6316V35.2316C47.0485 35.2316 45.9353 35.4891 44.9974 36.0129L45.1925 36.3621ZM48.3293 35.6316C49.6223 35.6316 50.6867 35.8845 51.5333 36.3779L51.7347 36.0323C50.8118 35.4944 49.6731 35.2316 48.3293 35.2316V35.6316ZM51.5333 36.3779C52.3774 36.8698 52.9996 37.5989 53.4002 38.575L53.7702 38.4231C53.3388 37.3718 52.6602 36.5716 51.7347 36.0323L51.5333 36.3779ZM53.5223 38.3092L51.9314 38.8365L52.0573 39.2162L53.6481 38.6889L53.5223 38.3092ZM52.1802 38.9523C51.8775 38.1927 51.3863 37.6067 50.7081 37.2022L50.5033 37.5458C51.1024 37.9031 51.537 38.4187 51.8086 39.1004L52.1802 38.9523ZM50.7088 37.2027C50.0396 36.7999 49.2496 36.6027 48.3469 36.6027V37.0027C49.1903 37.0027 49.9062 37.1864 50.5026 37.5454L50.7088 37.2027ZM48.3469 36.6027C46.9288 36.6027 45.8026 37.0627 44.9961 37.9994L45.2993 38.2604C46.0162 37.4276 47.0228 37.0027 48.3469 37.0027V36.6027ZM44.9966 37.9989C44.1944 38.9245 43.8051 40.1833 43.8051 41.751H44.2051C44.2051 40.2483 44.5775 39.0931 45.2988 38.2609L44.9966 37.9989ZM43.8051 41.751C43.8051 42.7824 43.9881 43.6972 44.3602 44.4902L44.7223 44.3203C44.3796 43.5899 44.2051 42.7351 44.2051 41.751H43.8051ZM44.361 44.4919C44.739 45.2785 45.2727 45.8967 45.9624 46.3401L46.1787 46.0036C45.5559 45.6033 45.07 45.0437 44.7215 44.3186L44.361 44.4919ZM45.9641 46.3412C46.6628 46.7802 47.4832 46.9959 48.4172 46.9959V46.5959C47.5466 46.5959 46.8025 46.3956 46.1769 46.0025L45.9641 46.3412ZM58.6291 42.2607V42.0607H58.4291V42.2607H58.6291ZM58.6291 48V48.2H58.8291V48H58.6291ZM56.9503 48H56.7503V48.2H56.9503V48ZM56.9503 35.6162V35.4162H56.7503V35.6162H56.9503ZM58.6291 35.6162H58.8291V35.4162H58.6291V35.6162ZM58.6291 40.8545H58.4291V41.0545H58.6291V40.8545ZM65.3263 40.8545V41.0545H65.5263V40.8545H65.3263ZM65.3263 35.6162V35.4162H65.1263V35.6162H65.3263ZM67.005 35.6162H67.205V35.4162H67.005V35.6162ZM67.005 48V48.2H67.205V48H67.005ZM65.3263 48H65.1263V48.2H65.3263V48ZM65.3263 42.2607H65.5263V42.0607H65.3263V42.2607ZM58.4291 42.2607V48H58.8291V42.2607H58.4291ZM58.6291 47.8H56.9503V48.2H58.6291V47.8ZM57.1503 48V35.6162H56.7503V48H57.1503ZM56.9503 35.8162H58.6291V35.4162H56.9503V35.8162ZM58.4291 35.6162V40.8545H58.8291V35.6162H58.4291ZM58.6291 41.0545H65.3263V40.6545H58.6291V41.0545ZM65.5263 40.8545V35.6162H65.1263V40.8545H65.5263ZM65.3263 35.8162H67.005V35.4162H65.3263V35.8162ZM66.805 35.6162V48H67.205V35.6162H66.805ZM67.005 47.8H65.3263V48.2H67.005V47.8ZM65.5263 48V42.2607H65.1263V48H65.5263ZM65.3263 42.0607H58.6291V42.4607H65.3263V42.0607ZM81.6455 36.9873V36.7873H81.4455V36.9873H81.6455ZM81.6455 48V48.2H81.8455V48H81.6455ZM79.9756 48H79.7756V48.2H79.9756V48ZM79.9756 36.9873H80.1756V36.7873H79.9756V36.9873ZM75.7217 36.9873H75.5217V37.1873H75.7217V36.9873ZM75.7217 35.6162V35.4162H75.5217V35.6162H75.7217ZM85.8994 35.6162H86.0994V35.4162H85.8994V35.6162ZM85.8994 36.9873V37.1873H86.0994V36.9873H85.8994ZM81.4455 36.9873V48H81.8455V36.9873H81.4455ZM81.6455 47.8H79.9756V48.2H81.6455V47.8ZM80.1756 48V36.9873H79.7756V48H80.1756ZM79.9756 36.7873H75.7217V37.1873H79.9756V36.7873ZM75.9217 36.9873V35.6162H75.5217V36.9873H75.9217ZM75.7217 35.8162H85.8994V35.4162H75.7217V35.8162ZM85.6994 35.6162V36.9873H86.0994V35.6162H85.6994ZM85.8994 36.7873H81.6455V37.1873H85.8994V36.7873ZM90.5566 42.8584V42.6584H90.3566V42.8584H90.5566ZM90.5566 48V48.2H90.7566V48H90.5566ZM88.8778 48H88.6778V48.2H88.8778V48ZM88.8778 35.6162V35.4162H88.6778V35.6162H88.8778ZM97.9306 36.5566L97.8029 36.7106L97.8042 36.7116L97.9306 36.5566ZM98.2646 41.4785L98.1129 41.3481L98.1122 41.3489L98.2646 41.4785ZM96.0497 42.665L96.0154 42.468L95.7148 42.5203L95.8827 42.7751L96.0497 42.665ZM99.5653 48V48.2H99.9367L99.7323 47.8899L99.5653 48ZM97.6318 48L97.4622 48.1061L97.521 48.2H97.6318V48ZM94.415 42.8584L94.5845 42.7523L94.5257 42.6584H94.415V42.8584ZM96.6474 37.5322L96.5241 37.6897L96.5262 37.6913L96.6474 37.5322ZM90.5566 36.9609V36.7609H90.3566V36.9609H90.5566ZM90.5566 41.5312H90.3566V41.7312H90.5566V41.5312ZM96.6562 40.916L96.786 41.0681L96.7862 41.068L96.6562 40.916ZM90.3566 42.8584V48H90.7566V42.8584H90.3566ZM90.5566 47.8H88.8778V48.2H90.5566V47.8ZM89.0778 48V35.6162H88.6778V48H89.0778ZM88.8778 35.8162H94.705V35.4162H88.8778V35.8162ZM94.705 35.8162C96.0722 35.8162 97.0954 36.1237 97.8029 36.7106L98.0583 36.4027C97.2541 35.7357 96.1269 35.4162 94.705 35.4162V35.8162ZM97.8042 36.7116C98.5128 37.2894 98.8732 38.096 98.8732 39.1582H99.2732C99.2732 37.9938 98.8718 37.0661 98.057 36.4016L97.8042 36.7116ZM98.8732 39.1582C98.8732 40.036 98.6172 40.7616 98.1129 41.3481L98.4162 41.6089C98.99 40.9415 99.2732 40.1202 99.2732 39.1582H98.8732ZM98.1122 41.3489C97.6141 41.9346 96.9207 42.3106 96.0154 42.468L96.084 42.8621C97.0655 42.6914 97.8486 42.2763 98.4169 41.6081L98.1122 41.3489ZM95.8827 42.7751L99.3983 48.1101L99.7323 47.8899L96.2167 42.555L95.8827 42.7751ZM99.5653 47.8H97.6318V48.2H99.5653V47.8ZM97.8013 47.8939L94.5845 42.7523L94.2454 42.9645L97.4622 48.1061L97.8013 47.8939ZM94.415 42.6584H90.5566V43.0584H94.415V42.6584ZM97.5857 39.1758C97.5857 38.4043 97.319 37.7925 96.7686 37.3731L96.5262 37.6913C96.9601 38.022 97.1857 38.5059 97.1857 39.1758H97.5857ZM96.7707 37.3748C96.2356 36.9557 95.4817 36.7609 94.538 36.7609V37.1609C95.4342 37.1609 96.0865 37.347 96.5241 37.6897L96.7707 37.3748ZM94.538 36.7609H90.5566V37.1609H94.538V36.7609ZM90.3566 36.9609V41.5312H90.7566V36.9609H90.3566ZM90.5566 41.7312H94.6083V41.3313H90.5566V41.7312ZM94.6083 41.7312C95.5218 41.7312 96.2572 41.5196 96.786 41.0681L96.5263 40.7639C96.0942 41.1328 95.4644 41.3313 94.6083 41.3313V41.7312ZM96.7862 41.068C97.3244 40.6076 97.5857 39.9678 97.5857 39.1758H97.1857C97.1857 39.872 96.9606 40.3924 96.5262 40.764L96.7862 41.068ZM104.688 44.3789V44.1789H104.552L104.502 44.3057L104.688 44.3789ZM103.264 48V48.2H103.401L103.451 48.0732L103.264 48ZM101.524 48L101.339 47.9244L101.227 48.2H101.524V48ZM106.578 35.6162V35.4162H106.444L106.393 35.5406L106.578 35.6162ZM108.485 35.6162L108.671 35.5417L108.62 35.4162H108.485V35.6162ZM113.46 48V48.2H113.756L113.645 47.9254L113.46 48ZM111.746 48L111.56 48.0728L111.609 48.2H111.746V48ZM110.331 44.3789L110.517 44.3061L110.467 44.1789H110.331V44.3789ZM107.51 36.8818L107.701 36.8239L107.51 36.1923L107.318 36.8237L107.51 36.8818ZM107.149 37.9805L106.96 37.9148L106.96 37.9164L107.149 37.9805ZM106.771 39.0352L106.958 39.1078L106.958 39.107L106.771 39.0352ZM105.198 43.0693L105.012 42.9967L104.905 43.2693H105.198V43.0693ZM109.83 43.0693V43.2693H110.122L110.016 42.9968L109.83 43.0693ZM108.239 38.9824L108.425 38.9099L108.425 38.9081L108.239 38.9824ZM104.502 44.3057L103.078 47.9268L103.451 48.0732L104.874 44.4521L104.502 44.3057ZM103.264 47.8H101.524V48.2H103.264V47.8ZM101.709 48.0756L106.763 35.6918L106.393 35.5406L101.339 47.9244L101.709 48.0756ZM106.578 35.8162H108.485V35.4162H106.578V35.8162ZM108.3 35.6908L113.274 48.0746L113.645 47.9254L108.671 35.5417L108.3 35.6908ZM113.46 47.8H111.746V48.2H113.46V47.8ZM111.932 47.9272L110.517 44.3061L110.145 44.4517L111.56 48.0728L111.932 47.9272ZM110.331 44.1789H104.688V44.5789H110.331V44.1789ZM107.318 36.8237C107.22 37.1488 107.1 37.5124 106.96 37.9148L107.338 38.0462C107.479 37.6399 107.6 37.2711 107.701 36.9399L107.318 36.8237ZM106.96 37.9164C106.826 38.3129 106.701 38.6618 106.585 38.9634L106.958 39.107C107.076 38.7991 107.203 38.4449 107.339 38.0445L106.96 37.9164ZM106.585 38.9625L105.012 42.9967L105.384 43.142L106.958 39.1078L106.585 38.9625ZM105.198 43.2693H109.83V42.8693H105.198V43.2693ZM110.016 42.9968L108.425 38.9099L108.053 39.055L109.644 43.1419L110.016 42.9968ZM108.425 38.9081C108.344 38.7063 108.237 38.4189 108.102 38.0447L107.726 38.1799C107.861 38.5557 107.97 38.8483 108.053 39.0567L108.425 38.9081ZM108.102 38.0447C107.969 37.6734 107.835 37.2665 107.701 36.8239L107.318 36.9398C107.454 37.3878 107.59 37.8013 107.726 38.1799L108.102 38.0447ZM117.915 35.6162H118.115V35.4162H117.915V35.6162ZM117.915 48V48.2H118.115V48H117.915ZM116.236 48H116.036V48.2H116.236V48ZM116.236 35.6162V35.4162H116.036V35.6162H116.236ZM117.715 35.6162V48H118.115V35.6162H117.715ZM117.915 47.8H116.236V48.2H117.915V47.8ZM116.436 48V35.6162H116.036V48H116.436ZM116.236 35.8162H117.915V35.4162H116.236V35.8162ZM130.078 46.6289H130.278V46.4289H130.078V46.6289ZM130.078 48V48.2H130.278V48H130.078ZM122.141 48H121.941V48.2H122.141V48ZM122.141 35.6162V35.4162H121.941V35.6162H122.141ZM123.82 35.6162H124.02V35.4162H123.82V35.6162ZM123.82 46.6289H123.62V46.8289H123.82V46.6289ZM129.878 46.6289V48H130.278V46.6289H129.878ZM130.078 47.8H122.141V48.2H130.078V47.8ZM122.341 48V35.6162H121.941V48H122.341ZM122.141 35.8162H123.82V35.4162H122.141V35.8162ZM123.62 35.6162V46.6289H124.02V35.6162H123.62ZM123.82 46.8289H130.078V46.4289H123.82V46.8289ZM142.997 46.6289H143.197V46.4289H142.997V46.6289ZM142.997 48V48.2H143.197V48H142.997ZM133.241 48H133.041V48.2H133.241V48ZM133.241 35.6162V35.4162H133.041V35.6162H133.241ZM142.636 35.6162H142.836V35.4162H142.636V35.6162ZM142.636 36.9873V37.1873H142.836V36.9873H142.636ZM134.92 36.9873V36.7873H134.72V36.9873H134.92ZM134.92 40.96H134.72V41.16H134.92V40.96ZM142.109 40.96H142.309V40.76H142.109V40.96ZM142.109 42.3135V42.5135H142.309V42.3135H142.109ZM134.92 42.3135V42.1135H134.72V42.3135H134.92ZM134.92 46.6289H134.72V46.8289H134.92V46.6289ZM142.797 46.6289V48H143.197V46.6289H142.797ZM142.997 47.8H133.241V48.2H142.997V47.8ZM133.441 48V35.6162H133.041V48H133.441ZM133.241 35.8162H142.636V35.4162H133.241V35.8162ZM142.436 35.6162V36.9873H142.836V35.6162H142.436ZM142.636 36.7873H134.92V37.1873H142.636V36.7873ZM134.72 36.9873V40.96H135.12V36.9873H134.72ZM134.92 41.16H142.109V40.76H134.92V41.16ZM141.909 40.96V42.3135H142.309V40.96H141.909ZM142.109 42.1135H134.92V42.5135H142.109V42.1135ZM134.72 42.3135V46.6289H135.12V42.3135H134.72ZM134.92 46.8289H142.997V46.4289H134.92V46.8289ZM148.005 42.8584V42.6584H147.805V42.8584H148.005ZM148.005 48V48.2H148.205V48H148.005ZM146.327 48H146.127V48.2H146.327V48ZM146.327 35.6162V35.4162H146.127V35.6162H146.327ZM155.379 36.5566L155.252 36.7106L155.253 36.7116L155.379 36.5566ZM155.713 41.4785L155.562 41.3481L155.561 41.3489L155.713 41.4785ZM153.499 42.665L153.464 42.468L153.164 42.5203L153.332 42.7751L153.499 42.665ZM157.014 48V48.2H157.386L157.181 47.8899L157.014 48ZM155.081 48L154.911 48.1061L154.97 48.2H155.081V48ZM151.864 42.8584L152.033 42.7523L151.975 42.6584H151.864V42.8584ZM154.096 37.5322L153.973 37.6897L153.975 37.6913L154.096 37.5322ZM148.005 36.9609V36.7609H147.805V36.9609H148.005ZM148.005 41.5312H147.805V41.7312H148.005V41.5312ZM154.105 40.916L154.235 41.0681L154.235 41.068L154.105 40.916ZM147.805 42.8584V48H148.205V42.8584H147.805ZM148.005 47.8H146.327V48.2H148.005V47.8ZM146.527 48V35.6162H146.127V48H146.527ZM146.327 35.8162H152.154V35.4162H146.327V35.8162ZM152.154 35.8162C153.521 35.8162 154.544 36.1237 155.252 36.7106L155.507 36.4027C154.703 35.7357 153.576 35.4162 152.154 35.4162V35.8162ZM155.253 36.7116C155.962 37.2894 156.322 38.096 156.322 39.1582H156.722C156.722 37.9938 156.321 37.0661 155.506 36.4016L155.253 36.7116ZM156.322 39.1582C156.322 40.036 156.066 40.7616 155.562 41.3481L155.865 41.6089C156.439 40.9415 156.722 40.1202 156.722 39.1582H156.322ZM155.561 41.3489C155.063 41.9346 154.37 42.3106 153.464 42.468L153.533 42.8621C154.514 42.6914 155.297 42.2763 155.866 41.6081L155.561 41.3489ZM153.332 42.7751L156.847 48.1101L157.181 47.8899L153.666 42.555L153.332 42.7751ZM157.014 47.8H155.081V48.2H157.014V47.8ZM155.25 47.8939L152.033 42.7523L151.694 42.9645L154.911 48.1061L155.25 47.8939ZM151.864 42.6584H148.005V43.0584H151.864V42.6584ZM155.035 39.1758C155.035 38.4043 154.768 37.7925 154.217 37.3731L153.975 37.6913C154.409 38.022 154.635 38.5059 154.635 39.1758H155.035ZM154.22 37.3748C153.684 36.9557 152.931 36.7609 151.987 36.7609V37.1609C152.883 37.1609 153.535 37.347 153.973 37.6897L154.22 37.3748ZM151.987 36.7609H148.005V37.1609H151.987V36.7609ZM147.805 36.9609V41.5312H148.205V36.9609H147.805ZM148.005 41.7312H152.057V41.3313H148.005V41.7312ZM152.057 41.7312C152.971 41.7312 153.706 41.5196 154.235 41.0681L153.975 40.7639C153.543 41.1328 152.913 41.3313 152.057 41.3313V41.7312ZM154.235 41.068C154.773 40.6076 155.035 39.9678 155.035 39.1758H154.635C154.635 39.872 154.409 40.3924 153.975 40.764L154.235 41.068Z" fill="white" mask="url(#path-3-outside-1_12_130)"/>
<path d="M72.3116 52.9492L58.0316 82.4592L43.7616 52.9492H40.6016L58.0316 88.9992L75.4816 52.9492H72.3116Z" fill="white"/>
<path d="M32.86 30.4L19.54 2.85H43.15L55.43 29.64L55.78 30.4H60.26L60.61 29.65L72.95 2.85H96.57L83.23 30.4H86.39L101.11 0H71.12L58.02 28.46L44.98 0H15L29.7 30.4H32.86Z" fill="white"/>
</svg>
